<svg width="13" height="13" viewBox="0 0 13 13" fill="none" xmlns="http://www.w3.org/2000/svg">
<path d="M6.5 12.75C3.04813 12.75 0.25 9.95187 0.25 6.5C0.25 3.04813 3.04813 0.25 6.5 0.25C9.95187 0.25 12.75 3.04813 12.75 6.5C12.75 9.95187 9.95187 12.75 6.5 12.75ZM6.5 11.5C7.82608 11.5 9.09785 10.9732 10.0355 10.0355C10.9732 9.09785 11.5 7.82608 11.5 6.5C11.5 5.17392 10.9732 3.90215 10.0355 2.96447C9.09785 2.02678 7.82608 1.5 6.5 1.5C5.17392 1.5 3.90215 2.02678 2.96447 2.96447C2.02678 3.90215 1.5 5.17392 1.5 6.5C1.5 7.82608 2.02678 9.09785 2.96447 10.0355C3.90215 10.9732 5.17392 11.5 6.5 11.5ZM5.875 8.375H7.125V9.625H5.875V8.375ZM7.125 7.34687V7.75H5.875V6.8125C5.875 6.64674 5.94085 6.48777 6.05806 6.37056C6.17527 6.25335 6.33424 6.1875 6.5 6.1875C6.67755 6.18749 6.85144 6.13706 7.00145 6.04208C7.15146 5.9471 7.27142 5.81148 7.34736 5.65099C7.4233 5.4905 7.45211 5.31175 7.43043 5.13553C7.40875 4.95931 7.33747 4.79287 7.2249 4.65557C7.11232 4.51827 6.96307 4.41577 6.79451 4.35998C6.62596 4.30419 6.44502 4.29742 6.27277 4.34044C6.10051 4.38346 5.94401 4.47452 5.82148 4.60301C5.69895 4.7315 5.61542 4.89215 5.58063 5.06625L4.35438 4.82062C4.4304 4.44068 4.60594 4.08773 4.86308 3.79787C5.12021 3.508 5.4497 3.29161 5.81787 3.17083C6.18604 3.05004 6.57968 3.02918 6.95855 3.11038C7.33742 3.19159 7.68794 3.37195 7.97426 3.63302C8.26059 3.89408 8.47245 4.2265 8.58819 4.59629C8.70394 4.96608 8.71942 5.35997 8.63304 5.73769C8.54666 6.11542 8.36153 6.46344 8.09658 6.74616C7.83162 7.02889 7.49633 7.23619 7.125 7.34687Z" fill="#A2A2A2"/>
</svg>
