<svg width="16" height="18" viewBox="0 0 16 18" fill="none" xmlns="http://www.w3.org/2000/svg">
  <path
    d="M0.5 4.83332L7.5375 0.141651C7.67444 0.0502848 7.83538 0.00152588 8 0.00152588C8.16462 0.00152588 8.32556 0.0502848 8.4625 0.141651L15.5 4.83332V16.5C15.5 16.721 15.4122 16.933 15.2559 17.0892C15.0996 17.2455 14.8877 17.3333 14.6667 17.3333H1.33333C1.11232 17.3333 0.900358 17.2455 0.744078 17.0892C0.587797 16.933 0.5 16.721 0.5 16.5V4.83332ZM2.16667 5.72498V15.6666H13.8333V5.72498L8 1.83665L2.16667 5.72498ZM8 8.16665C7.55797 8.16665 7.13405 7.99106 6.82149 7.67849C6.50893 7.36593 6.33333 6.94201 6.33333 6.49998C6.33333 6.05796 6.50893 5.63403 6.82149 5.32147C7.13405 5.00891 7.55797 4.83332 8 4.83332C8.44203 4.83332 8.86595 5.00891 9.17851 5.32147C9.49107 5.63403 9.66667 6.05796 9.66667 6.49998C9.66667 6.94201 9.49107 7.36593 9.17851 7.67849C8.86595 7.99106 8.44203 8.16665 8 8.16665Z"
    fill="#F3F3F3" />
</svg>